<?xml version="1.0" encoding="UTF-8" standalone="no"?>
<!-- Created with Inkscape (http://www.inkscape.org/) -->

<svg
   xmlns:dc="http://purl.org/dc/elements/1.1/"
   xmlns:cc="http://creativecommons.org/ns#"
   xmlns:rdf="http://www.w3.org/1999/02/22-rdf-syntax-ns#"
   xmlns:svg="http://www.w3.org/2000/svg"
   xmlns="http://www.w3.org/2000/svg"
   xmlns:sodipodi="http://sodipodi.sourceforge.net/DTD/sodipodi-0.dtd"
   xmlns:inkscape="http://www.inkscape.org/namespaces/inkscape"
   width="105.83333mm"
   height="105.83333mm"
   viewBox="0 0 105.83333 105.83333"
   version="1.1"
   id="svg1254"
   inkscape:version="0.92.3 (2405546, 2018-03-11)"
   sodipodi:docname="c_01k.svg">
  <defs
     id="defs1248" />
  <sodipodi:namedview
     id="base"
     pagecolor="#ffffff"
     bordercolor="#666666"
     borderopacity="1.0"
     inkscape:pageopacity="0.0"
     inkscape:pageshadow="2"
     inkscape:zoom="1.4"
     inkscape:cx="198.30156"
     inkscape:cy="42.026749"
     inkscape:document-units="mm"
     inkscape:current-layer="g1088"
     showgrid="false"
     fit-margin-top="0"
     fit-margin-left="0"
     fit-margin-right="0"
     fit-margin-bottom="0"
     inkscape:window-width="1920"
     inkscape:window-height="1051"
     inkscape:window-x="-9"
     inkscape:window-y="-9"
     inkscape:window-maximized="1"
     inkscape:snap-page="true"
     showguides="true"
     inkscape:guide-bbox="true"
     inkscape:snap-bbox="true"
     inkscape:bbox-nodes="true"
     inkscape:snap-nodes="false">
    <sodipodi:guide
       position="146.96871,-6.342651"
       orientation="0,1"
       id="guide1983"
       inkscape:locked="false" />
  </sodipodi:namedview>
  <metadata
     id="metadata1251">
    <rdf:RDF>
      <cc:Work
         rdf:about="">
        <dc:format>image/svg+xml</dc:format>
        <dc:type
           rdf:resource="http://purl.org/dc/dcmitype/StillImage" />
        <dc:title></dc:title>
      </cc:Work>
    </rdf:RDF>
  </metadata>
  <g
     inkscape:label="Layer 1"
     inkscape:groupmode="layer"
     id="layer1"
     transform="translate(-45.357151,-41.488094)">
    <g
       transform="translate(263.37382,103.26309)"
       id="g1183">
      <g
         transform="translate(5.4312985,-111.6868)"
         id="g1078" />
      <g
         transform="translate(0.13964204,0.13963953)"
         id="g2022">
        <g
           transform="matrix(0.87833753,0,0,0.87833753,-326.14369,30.107054)"
           id="use1124">
          <g
             transform="matrix(1.1385145,0,0,1.1385145,245.84783,-30.821512)"
             id="g2142">
            <g
               transform="translate(110.06667,-3.175)"
               id="g1122">
              <g
                 transform="translate(-118.89993,-121.28685)"
                 id="g2208">
                <g
                   id="g2293"
                   transform="translate(13.066605,-106.2548)">
                  <g
                     transform="translate(137.78275,-30.580588)"
                     id="g1116">
                    <g
                       id="g2338">
                      <g
                         transform="translate(-31.949426,258.12224)"
                         id="g1088">
                        <path
                           sodipodi:nodetypes="cccccccc"
                           inkscape:connector-curvature="0"
                           id="path1086"
                           d="m -168.10121,-45.166173 -12.70493,37.1294813 h 6.56672 l -11.2335,35.4986447 30.80474,-44.302136 h -7.97172 l 17.91282,-28.32599 z"
                           style="fill:#ffffff;fill-rule:evenodd;stroke:none;stroke-width:0.26458332px;stroke-linecap:butt;stroke-linejoin:miter;stroke-opacity:1" />
                      </g>
                      <g
                         id="use1177"
                         transform="matrix(0.87833752,0,0,0.87833752,-152.425,357.43362)">
                        <path
                           inkscape:transform-center-y="2.8773154e-006"
                           inkscape:transform-center-x="-1.8259847e-006"
                           d="m 4.4787072,-155.16747 4.962122,4.80353 -3.517101,5.94362 3.234885,6.10181 -5.1816406,4.56587 1.190995,6.8028 -6.3389652,2.74119 -0.9694779,6.83789 -6.8757877,0.64817 -3.0350518,6.20363 -6.73956,-1.50828 -4.803533,4.96212 -5.943618,-3.5171 -6.101811,3.23489 -4.565872,-5.18164 -6.802803,1.19099 -2.741187,-6.33896 -6.837887,-0.96948 -0.648176,-6.87579 -6.203632,-3.03505 1.508283,-6.73956 -4.962122,-4.80353 3.517101,-5.94362 -3.234885,-6.10181 5.18164,-4.56587 -1.190995,-6.80281 6.338966,-2.74118 0.969477,-6.83789 6.875788,-0.64818 3.035052,-6.20363 6.73956,1.50828 4.803533,-4.96212 5.943618,3.5171 6.101811,-3.23488 4.565872,5.18164 6.802803,-1.191 2.7411871,6.33897 6.837887,0.96948 0.64817621,6.87578 6.20363189,3.03506 z"
                           inkscape:randomized="0"
                           inkscape:rounded="0"
                           inkscape:flatsided="false"
                           sodipodi:arg2="-0.13365462"
                           sodipodi:arg1="-0.29073425"
                           sodipodi:r2="38.510487"
                           sodipodi:r1="34.659439"
                           sodipodi:cy="-145.23215"
                           sodipodi:cx="-28.726202"
                           sodipodi:sides="20"
                           id="path2323"
                           style="opacity:1;fill:#8d5fd3;fill-opacity:0.66666667;stroke:none;stroke-width:0.10167732;stroke-linecap:butt;stroke-linejoin:round;stroke-miterlimit:4;stroke-dasharray:none"
                           sodipodi:type="star" />
                        <g
                           aria-label="x1000"
                           style="font-style:normal;font-variant:normal;font-weight:normal;font-stretch:normal;font-size:22.49198532px;line-height:100%;font-family:'Berlin Sans FB Demi';-inkscape-font-specification:'Berlin Sans FB Demi';letter-spacing:0px;word-spacing:0px;fill:#d4ff00;fill-opacity:1;stroke:none;stroke-width:0.147525px;stroke-linecap:butt;stroke-linejoin:miter;stroke-opacity:1"
                           id="text2327">
                          <path
                             d="m -48.428654,-138.769 q 0,0.24161 -0.362419,0.29653 -0.647963,0.0879 -1.372802,0.0879 -0.768769,0 -1.284943,-0.0879 -0.131789,-0.022 -0.406349,-0.21965 -0.538139,-0.76877 -1.63638,-2.29533 -0.27456,0.32948 -1.801116,2.26238 -0.142771,0.19768 -0.406349,0.2526 -0.384385,0.0879 -1.208066,0.0879 -1.735221,0 -1.735221,-0.38439 0,-0.31849 0.01098,-0.96645 0.01098,-0.65895 0.01098,-0.98842 0,-0.1867 0.197684,-0.40635 0.856628,-0.88957 2.525955,-2.69069 -0.768769,-0.73582 -1.526555,-1.47164 -1.219048,-1.19709 -1.219048,-1.41673 v -1.93291 q 0,-0.28554 0.384384,-0.28554 0.439297,0 1.306907,0.0329 0.878594,0.0329 1.31789,0.0329 0.219648,0 0.406349,0.24162 0.604033,0.80171 1.691292,2.03174 0.988418,-1.19708 1.570486,-2.03174 0.164736,-0.21965 0.406349,-0.21965 0.461261,0 1.372802,-0.0439 0.91154,-0.0439 1.372802,-0.0439 0.384384,0 0.384384,0.28554 v 1.93291 q 0,0.20866 -0.186701,0.38438 -0.834663,0.84565 -2.471043,2.56989 0.834663,0.86761 2.471043,2.64676 0.186701,0.20866 0.186701,0.40635 z"
                             style="font-style:normal;font-variant:normal;font-weight:normal;font-stretch:normal;font-size:22.49198532px;line-height:100%;font-family:'Berlin Sans FB Demi';-inkscape-font-specification:'Berlin Sans FB Demi';fill:#d4ff00;fill-opacity:1;stroke-width:0.147525px"
                             id="path2340"
                             inkscape:connector-curvature="0" />
                          <path
                             d="m -42.102783,-139.03258 q 0,0.20867 -0.186701,0.38439 -0.186702,0.17572 -0.40635,0.17572 -0.527156,0 -1.581468,0.011 -1.054311,0.011 -1.581467,0.011 -0.40635,0 -0.395367,-0.35144 l 0.01098,-0.1208 q 0.153754,-4.19528 0.153754,-5.08486 v -3.26178 q 0,-0.3075 -0.142771,-0.3075 -0.219649,0 -0.669928,0.13178 -0.439296,0.13179 -0.669927,0.13179 -0.340455,0 -0.340455,-0.40635 0,-0.3734 -0.01098,-1.1202 -0.01098,-0.74681 -0.01098,-1.13119 0,-0.21965 0.274561,-0.32947 1.614415,-0.66993 2.536938,-1.80112 0.186701,-0.23063 0.31849,-0.23063 0.02196,0 0.131789,0.022 0.417331,0.0879 1.241012,0.27456 0.439297,0.0549 1.284943,0.19769 0.153754,0.0439 0.153754,0.24161 0,0.0659 -0.02197,0.23063 -0.120807,0.96645 -0.120807,4.73342 0,1.26298 0.01098,3.79992 0.02196,2.53694 0.02196,3.79991 z"
                             style="font-style:normal;font-variant:normal;font-weight:normal;font-stretch:normal;font-size:22.49198532px;line-height:100%;font-family:'Berlin Sans FB Demi';-inkscape-font-specification:'Berlin Sans FB Demi';fill:#d4ff00;fill-opacity:1;stroke-width:0.147525px"
                             id="path2342"
                             inkscape:connector-curvature="0" />
                          <path
                             d="m -27.188664,-145.10585 q 0,2.83346 -1.834063,4.86521 -1.899958,2.10862 -4.711456,2.10862 -2.811498,0 -4.700474,-2.10862 -1.845045,-2.03175 -1.845045,-4.86521 0,-2.84445 1.845045,-4.85423 1.888976,-2.07568 4.700474,-2.07568 2.811498,0 4.700473,2.07568 1.845046,2.02077 1.845046,4.85423 z m -4.074476,0 q 0,-1.13119 -0.658945,-1.96585 -0.702874,-0.88958 -1.812098,-0.88958 -1.131189,0 -1.823081,0.87859 -0.647962,0.8127 -0.647962,1.97684 0,1.14217 0.647962,1.98782 0.702875,0.91154 1.823081,0.91154 1.076277,0 1.801116,-0.93351 0.669927,-0.85663 0.669927,-1.96585 z"
                             style="font-style:normal;font-variant:normal;font-weight:normal;font-stretch:normal;font-size:22.49198532px;line-height:100%;font-family:'Berlin Sans FB Demi';-inkscape-font-specification:'Berlin Sans FB Demi';fill:#d4ff00;fill-opacity:1;stroke-width:0.147525px"
                             id="path2344"
                             inkscape:connector-curvature="0" />
                          <path
                             d="m -12.999386,-145.10585 q 0,2.83346 -1.834064,4.86521 -1.899957,2.10862 -4.711455,2.10862 -2.811499,0 -4.700474,-2.10862 -1.845046,-2.03175 -1.845046,-4.86521 0,-2.84445 1.845046,-4.85423 1.888975,-2.07568 4.700474,-2.07568 2.811498,0 4.700473,2.07568 1.845046,2.02077 1.845046,4.85423 z m -4.074476,0 q 0,-1.13119 -0.658945,-1.96585 -0.702875,-0.88958 -1.812098,-0.88958 -1.131189,0 -1.823081,0.87859 -0.647963,0.8127 -0.647963,1.97684 0,1.14217 0.647963,1.98782 0.702874,0.91154 1.823081,0.91154 1.076276,0 1.801116,-0.93351 0.669927,-0.85663 0.669927,-1.96585 z"
                             style="font-style:normal;font-variant:normal;font-weight:normal;font-stretch:normal;font-size:22.49198532px;line-height:100%;font-family:'Berlin Sans FB Demi';-inkscape-font-specification:'Berlin Sans FB Demi';fill:#d4ff00;fill-opacity:1;stroke-width:0.147525px"
                             id="path2346"
                             inkscape:connector-curvature="0" />
                          <path
                             d="m 1.1898952,-145.10585 q 0,2.83346 -1.83406327,4.86521 -1.89995773,2.10862 -4.71145593,2.10862 -2.8114981,0 -4.700473,-2.10862 -1.845046,-2.03175 -1.845046,-4.86521 0,-2.84445 1.845046,-4.85423 1.8889749,-2.07568 4.700473,-2.07568 2.8114982,0 4.70047352,2.07568 1.84504568,2.02077 1.84504568,4.85423 z m -4.0744759,0 q 0,-1.13119 -0.6589449,-1.96585 -0.7028745,-0.88958 -1.8120984,-0.88958 -1.1311887,0 -1.8230808,0.87859 -0.6479625,0.8127 -0.6479625,1.97684 0,1.14217 0.6479625,1.98782 0.7028745,0.91154 1.8230808,0.91154 1.0762767,0 1.801116,-0.93351 0.6699273,-0.85663 0.6699273,-1.96585 z"
                             style="font-style:normal;font-variant:normal;font-weight:normal;font-stretch:normal;font-size:22.49198532px;line-height:100%;font-family:'Berlin Sans FB Demi';-inkscape-font-specification:'Berlin Sans FB Demi';fill:#d4ff00;fill-opacity:1;stroke-width:0.147525px"
                             id="path2348"
                             inkscape:connector-curvature="0" />
                        </g>
                      </g>
                    </g>
                  </g>
                </g>
              </g>
            </g>
          </g>
        </g>
      </g>
    </g>
  </g>
</svg>
