<svg xmlns="http://www.w3.org/2000/svg" xmlns:xlink="http://www.w3.org/1999/xlink" width="400" height="400" viewBox="0 0 105.83 105.83"><g transform="rotate(45 159.87 328.67)"><g transform="translate(-186.8 106.63)"><path id="a" d="M31.8 105.62h17.37v4.74l7.67-7.67-7.67-7.67v4.74H31.8v2.93z" fill="#fff" fill-rule="evenodd" stroke-width=".2"/><use xlink:href="#a" transform="rotate(180 76.05 102.69)" width="100%" height="100%"/></g><g id="b" transform="translate(-186.8 90)"><path d="M33.92 105.62h17.36v4.74l7.68-7.67-7.68-7.67v4.74H33.92v2.93z" fill="#fff" fill-rule="evenodd" stroke-width=".2"/><use height="100%" width="100%" transform="rotate(180 75 102.69)" xlink:href="#a"/></g><g transform="translate(-186.8 73.37)" id="c"><path d="M40.27 105.62h17.36v4.74l7.68-7.67-7.68-7.67v4.74H40.27v2.93z" fill="#fff" fill-rule="evenodd" stroke-width=".2"/><use xlink:href="#a" transform="rotate(180 71.82 102.69)" width="100%" height="100%"/></g><use height="100%" width="100%" transform="translate(0 33.26)" xlink:href="#b"/><use height="100%" width="100%" transform="translate(0 66.52)" xlink:href="#c"/></g></svg>