<svg xmlns="http://www.w3.org/2000/svg" xmlns:xlink="http://www.w3.org/1999/xlink" width="400" height="400" viewBox="0 0 105.8 105.8"><g transform="rotate(45 66.2 41.3)"><g id="b" transform="translate(-33 -29.7)"><path d="M48.4 97.5h31V89L93 102.7l-13.7 13.7v-8.5h-31v-5.2z" id="a" fill="#fff" fill-rule="evenodd" stroke-width=".4"/><use height="100%" width="100%" transform="rotate(180 98 102.7)" xlink:href="#a"/></g><use xlink:href="#b" transform="translate(0 -27.8)" width="100%" height="100%"/></g><path d="M101.4 24.8l4.4 4.3-3.1 5.2 2.8 5.3-4.5 4 1 6-5.5 2.4-.9 6-6 .6-2.7 5.5-6-1.4-4.1 4.4-5.2-3.1-5.4 2.8-4-4.5-6 1-2.4-5.5-6-.9-.6-6-5.4-2.7 1.3-6-4.4-4.1 3.1-5.2-2.8-5.4 4.5-4-1-6 5.6-2.4.8-6 6-.6 2.7-5.4 6 1.3L67.7 0 73 3.1 78.3.3l4 4.5 6-1 2.4 5.6 6 .8.6 6 5.5 2.7z" fill="red" fill-opacity=".7" stroke="#000" stroke-width=".08783400000000001" stroke-linejoin="round"/><g aria-label="x10" style="line-height:100%;-inkscape-font-specification:'Berlin Sans FB Demi'" font-weight="400" font-size="38.8" font-family="Berlin Sans FB Demi" letter-spacing="0" word-spacing="0" fill="#fff" stroke-width=".2"><path d="M64 43.4q0 .3-.6.4l-2.1.1h-2l-.6-.4-2.5-3.5-2.7 3.4q-.2.3-.6.4L51 44q-2.7 0-2.7-.5v-1.5-1.5q0-.3.4-.6l3.8-4-2.3-2.3q-1.9-1.8-1.9-2.2v-2.9q0-.4.6-.4h4q.3 0 .6.4l2.6 3.1 2.3-3q.3-.4.7-.4h2l2.1-.1q.6 0 .6.4v3q0 .2-.3.5L60 36l3.7 4q.3.2.3.5zM73.5 43q0 .3-.3.5-.3.3-.6.3h-4.8q-.6 0-.6-.5v-.2l.3-7.7v-5q0-.4-.3-.4l-1 .2-1 .2q-.5 0-.5-.6v-1.7-1.7q0-.3.4-.5 2.4-1 3.8-2.7.3-.4.5-.4h.2l1.9.5 2 .3q.2 0 .2.3v.4q-.3 1.4-.3 7.1v5.8l.1 5.8zM96.1 33.8q0 4.3-2.8 7.3-2.9 3.2-7.1 3.2-4.3 0-7.1-3.2-2.8-3-2.8-7.3 0-4.4 2.8-7.4 2.8-3.1 7-3.1 4.3 0 7.2 3.1 2.8 3 2.8 7.4zm-6.2 0q0-1.8-1-3-1-1.4-2.7-1.4-1.7 0-2.8 1.4-1 1.2-1 3 0 1.7 1 3 1 1.4 2.8 1.4 1.6 0 2.7-1.5 1-1.3 1-3z" style="line-height:100%;-inkscape-font-specification:'Berlin Sans FB Demi'"/></g></svg>