<svg xmlns="http://www.w3.org/2000/svg" xmlns:xlink="http://www.w3.org/1999/xlink" width="400.8" height="400" viewBox="0 0 106 105.8"><g transform="translate(145.9 -142.4)"><path d="M-130.7 148l28.3 28.3 7.7-7.7v25h-25l7.7-7.7-28.2-28.3 4.7-4.8z" id="a" fill="#fff" fill-rule="evenodd" stroke-width=".5"/><use height="100%" width="100%" transform="rotate(180 -93 195.3)" xlink:href="#a"/></g><path d="M101.7 25.5l4.3 4.2-3 5.2 2.8 5.4-4.5 4 1 6-5.6 2.4-.8 6-6 .5-2.7 5.5-6-1.3-4.2 4.3-5.2-3-5.3 2.8-4-4.6-6 1-2.4-5.5-6-.8-.6-6-5.5-2.7 1.4-6-4.4-4.2 3-5.2-2.7-5.4 4.5-4-1-6 5.5-2.4.9-6 6-.5L58 3.7 63.8 5 68 .7l5.2 3L78.6 1l4 4.6 6-1L91 10l6 .9.6 6 5.4 2.7z" fill="#0ff" fill-opacity=".7"/><g aria-label="x100" style="line-height:100%;-inkscape-font-specification:'Berlin Sans FB Demi'" font-weight="400" font-size="28.3" font-family="Berlin Sans FB Demi" letter-spacing="0" word-spacing="0" fill="#d45500" stroke-width=".1"><path d="M58.6 41.4q0 .2-.4.3h-2.9q-.2 0-.5-.3L53 39l-2 2.5q-.1.2-.4.3h-1.4q-1.9 0-1.9-.3v-1.1-1.1q0-.2.3-.5l2.8-3q-.9-.7-1.7-1.6-1.4-1.3-1.4-1.5v-2.2q0-.3.5-.3h2.9q.2 0 .4.4l1.9 2.2 1.7-2.2q.2-.3.5-.3h3q.4 0 .4.2v2.2l-.2.4-2.7 2.8 2.7 3 .2.4zM65.6 41q0 .3-.2.5l-.4.2h-3.5q-.5 0-.5-.4v-.1l.2-5.6V32l-.1-.4-.8.2-.7.1q-.4 0-.4-.4v-1.3V29q0-.3.3-.4 1.8-.7 2.8-2l.3-.2h.2l1.4.3 1.4.2.1.3v.2l-.1 5.3V41zM82.1 34.3q0 3.2-2 5.4-2.1 2.4-5.2 2.4t-5.2-2.4q-2-2.2-2-5.4 0-3.1 2-5.3 2-2.3 5.2-2.3 3 0 5.2 2.3 2 2.2 2 5.3zm-4.5 0q0-1.2-.7-2.1-.8-1-2-1-1.3 0-2 1-.8.9-.8 2.1 0 1.3.8 2.2.7 1 2 1 1.2 0 2-1 .7-1 .7-2.2zM97.8 34.3q0 3.2-2 5.4-2.1 2.4-5.2 2.4t-5.2-2.4q-2-2.2-2-5.4 0-3.1 2-5.3 2-2.3 5.2-2.3 3 0 5.2 2.3 2 2.2 2 5.3zm-4.5 0q0-1.2-.7-2.1-.8-1-2-1-1.3 0-2 1-.8.9-.8 2.1 0 1.3.8 2.2.7 1 2 1 1.2 0 2-1 .7-1 .7-2.2z" style="line-height:100%;-inkscape-font-specification:'Berlin Sans FB Demi'"/></g></svg>