<svg xmlns="http://www.w3.org/2000/svg" width="400" height="400" viewBox="0 0 105.8 105.8"><path d="M50 16.6L37.1 53.7h6.6L32.5 89.2 63.3 45h-8l18-28.3z" fill="#fff" fill-rule="evenodd"/><path d="M101.5 24.8l4.3 4.2-3 5.2 2.8 5.4-4.6 4 1 6-5.5 2.4-.8 6-6 .6L87 64l-6-1.3-4.2 4.3-5.2-3-5.4 2.8-4-4.6-6 1-2.4-5.5-6-.8-.5-6-5.5-2.7 1.3-6-4.3-4.2 3-5.2-2.8-5.3 4.6-4-1-6L48 15l.9-6 6-.6L57.7 3l5.9 1.4L67.8 0 73 3 78.4.3l4 4.6 6-1 2.4 5.5 6 .9.6 6 5.4 2.7z" fill="#8d5fd3" fill-opacity=".7"/><g aria-label="x1000" style="line-height:100%;-inkscape-font-specification:'Berlin Sans FB Demi'" font-weight="400" font-size="22.5" font-family="Berlin Sans FB Demi" letter-spacing="0" word-spacing="0" fill="#d4ff00" stroke-width=".1"><path d="M55 39.2q0 .2-.3.3h-2.3l-.4-.2-1.4-2q-.3.2-1.6 2l-.4.2h-1q-1.6 0-1.6-.3v-.8-1l.2-.3 2.2-2.3-1.3-1.3q-1-1-1-1.3v-1.7q0-.2.3-.2h2.3q.2 0 .3.2l1.5 1.8 1.4-1.8.4-.1h1.2l1.2-.1q.3 0 .3.2v1.7l-.2.4-2.1 2.2 2.1 2.3.2.4zM60.6 39q0 .2-.2.3l-.4.2h-2.7q-.4 0-.4-.3V39l.2-4.5v-2.9q0-.2-.2-.2h-.6l-.5.2q-.3 0-.3-.4v-1-1l.2-.2q1.4-.6 2.2-1.6l.3-.2h.1l1 .2 1.2.2q.2 0 .2.2v.2q-.2.9-.2 4.2V39zM73.7 33.6q0 2.5-1.7 4.3-1.6 1.9-4 1.9-2.6 0-4.2-1.9-1.6-1.8-1.6-4.3t1.6-4.2q1.6-1.9 4.1-1.9 2.5 0 4.1 1.9 1.7 1.7 1.7 4.2zm-3.6 0q0-1-.6-1.7-.6-.8-1.6-.8t-1.6.8q-.6.7-.6 1.7t.6 1.8q.6.8 1.6.8t1.6-.8q.6-.8.6-1.8zM86.1 33.6q0 2.5-1.6 4.3-1.7 1.9-4.1 1.9-2.5 0-4.2-1.9-1.6-1.8-1.6-4.3t1.6-4.2q1.7-1.9 4.2-1.9 2.4 0 4.1 1.9 1.6 1.7 1.6 4.2zm-3.6 0q0-1-.5-1.7-.7-.8-1.6-.8-1 0-1.6.8-.6.7-.6 1.7t.6 1.8q.6.8 1.6.8t1.6-.8q.5-.8.5-1.8zM98.6 33.6q0 2.5-1.6 4.3-1.7 1.9-4.2 1.9-2.4 0-4-1.9-1.7-1.8-1.7-4.3t1.6-4.2q1.7-1.9 4.1-1.9 2.5 0 4.2 1.9 1.6 1.7 1.6 4.2zm-3.6 0q0-1-.6-1.7-.6-.8-1.6-.8t-1.6.8q-.5.7-.5 1.7t.5 1.8q.7.8 1.6.8 1 0 1.6-.8.6-.8.6-1.8z" style="line-height:100%;-inkscape-font-specification:'Berlin Sans FB Demi'"/></g></svg>