<svg xmlns="http://www.w3.org/2000/svg" width="400" height="400" viewBox="0 0 105.8 105.8"><path d="M50 16.7L37.5 54h6.5L32.7 89.4 63.5 45h-8l18-28.4z" fill="#fff" fill-rule="evenodd"/><path d="M101.6 25l4.3 4.2-3 5.2 2.8 5.4-4.6 4 1 6-5.5 2.4-.8 6-6 .5-2.7 5.5-6-1.3-4.2 4.3-5.2-3-5.4 2.8-4-4.6-6 1L54 58l-6-.8-.5-6-5.5-2.7 1.3-6-4.3-4.2 3-5.2-2.8-5.4 4.6-4-1-6 5.5-2.4.9-6 6-.5 2.7-5.5 5.9 1.3L67.9.2l5.2 3L78.5.5l4 4.6 6-1 2.4 5.5 6 .9.5 6 5.5 2.7z" fill="red" fill-opacity=".7" stroke="#000" stroke-width=".08783400000000001" stroke-linejoin="round"/><g aria-label="x10" style="line-height:100%;-inkscape-font-specification:'Berlin Sans FB Demi'" font-weight="400" font-size="38.8" font-family="Berlin Sans FB Demi" letter-spacing="0" word-spacing="0" fill="#fff" stroke-width=".2"><path d="M64 43.5q0 .4-.5.5h-4q-.2 0-.6-.4l-2.5-3.5-2.8 3.5q-.2.3-.6.4h-1.8q-2.6 0-2.6-.5V42v-1.5l.3-.6 3.8-4-2.3-2.3q-1.8-1.8-1.8-2.1v-3q0-.4.5-.4h2l2 .1q.4 0 .6.4l2.6 3 2.4-3q.2-.4.6-.4h4.2q.5 0 .5.3v3l-.2.6-3.8 3.8 3.8 4 .2.7zM73.6 43.1l-.2.6q-.3.3-.7.3H68q-.6 0-.6-.5v-.2l.3-7.7v-5q0-.4-.2-.4l-1 .2-1 .2q-.6 0-.6-.7v-1.7-1.7q0-.3.4-.5 2.5-1 3.9-2.7.2-.4.4-.4h.2l2 .5 1.9.3q.2 0 .2.4v.3q-.2 1.5-.2 7.2V43zM96.2 33.9q0 4.3-2.7 7.4-3 3.2-7.2 3.2t-7.1-3.2q-2.8-3.1-2.8-7.4 0-4.3 2.8-7.4 2.9-3.1 7.1-3.1 4.3 0 7.1 3.1t2.8 7.4zm-6.1 0q0-1.7-1-3t-2.8-1.3q-1.7 0-2.7 1.3-1 1.2-1 3 0 1.7 1 3 1 1.4 2.7 1.4 1.7 0 2.8-1.4 1-1.3 1-3z" style="line-height:100%;-inkscape-font-specification:'Berlin Sans FB Demi'"/></g></svg>