<svg xmlns="http://www.w3.org/2000/svg" width="400" height="400" viewBox="0 0 105.8 105.8"><path d="M50 16.6L37.1 53.7h6.6L32.5 89.2 63.3 45h-8l18-28.3z" fill="#fff" fill-rule="evenodd"/><path d="M101.5 24.8l4.3 4.2-3 5.2 2.8 5.4-4.6 4 1 6-5.5 2.4-.8 6-6 .6L87 64l-6-1.3-4.2 4.3-5.2-3-5.4 2.8-4-4.6-6 1-2.4-5.5-6-.8-.5-6-5.5-2.7 1.3-6-4.3-4.2 3-5.2-2.8-5.3 4.6-4-1-6L48 15l.9-6 6-.6L57.7 3l5.9 1.4L67.8 0 73 3 78.4.3l4 4.6 6-1 2.4 5.5 6 .9.6 6 5.4 2.7z" fill="#5f9" fill-opacity=".7"/><g aria-label="x10k" style="line-height:100%;-inkscape-font-specification:'Berlin Sans FB Demi'" font-weight="400" font-size="28.9" font-family="Berlin Sans FB Demi" letter-spacing="0" word-spacing="0" fill="navy" stroke-width=".1"><path d="M58.4 41.9q0 .3-.5.3l-1.5.1h-1.5l-.4-.3-1.9-2.6-2 2.5q-.2.3-.5.3l-1.3.1q-2 0-2-.4v-1.1-1.1q0-.2.3-.5l2.8-3-1.7-1.7q-1.4-1.3-1.4-1.6v-2.2q0-.3.5-.3h2.9q.3 0 .5.4l1.9 2.3 1.8-2.3q.1-.3.4-.3H58q.5 0 .5.2V33q0 .3-.3.5l-2.8 2.9 2.8 3q.3.2.3.4zM65.5 41.6l-.2.4q-.2.2-.5.2h-3.5q-.5 0-.5-.3v-.2L61 36v-3.7q0-.4-.2-.4l-.7.2-.8.1q-.4 0-.4-.4v-1.3-1.3q0-.2.3-.3 1.8-.8 2.9-2l.3-.3h.2l1.4.3 1.4.2q.2 0 .2.3v.3l-.1 5.3v8.6zM82.3 34.7q0 3.2-2 5.5-2.2 2.4-5.4 2.4-3.1 0-5.3-2.4-2-2.3-2-5.5t2-5.4q2.2-2.4 5.3-2.4 3.2 0 5.4 2.4 2 2.2 2 5.4zm-4.6 0q0-1.2-.7-2.2-.8-1-2-1-1.3 0-2.1 1-.7 1-.7 2.2 0 1.3.7 2.3.8 1 2 1 1.3 0 2-1 .8-1 .8-2.3zM97.8 34.1q0 2.8-2.7 4.2-.2.1-.2.3 0 .2 1.1 1.7l1.2 1.6q0 .4-3.3.4-1.3 0-1.5-.4L91 39.6l-2.3-.2v2.5q0 .3-.3.4h-3.7q-.3-.1-.3-.6v-7.6l-.2-4.5V25q0-.3.3-.3h2l1.1-.1 1.2-.2q.2 0 .2.4v1.3l-.1 1.3-.2 4.1.1.4.3-.3q1.6-1.7 4-1.7 2.1 0 3.4 1 1.4 1.1 1.4 3.2zm-5 .8q0-1.5-1.6-1.5-.8 0-1.6.6-1 .6-1 1.3 0 1 .3 1.3l1.5.1q2.5 0 2.5-1.8z" style="line-height:100%;-inkscape-font-specification:'Berlin Sans FB Demi'"/></g></svg>