<svg xmlns="http://www.w3.org/2000/svg" xmlns:xlink="http://www.w3.org/1999/xlink" width="400" height="400" viewBox="0 0 105.8 105.8"><g transform="translate(167.8 -19.4)"><g transform="rotate(45 17.2 -143)"><path id="a" d="M56.9 105.6H39.5v4.8l-7.7-7.7 7.7-7.7v4.8H57v2.9z" fill="#fff" fill-rule="evenodd" stroke-width=".2"/><use xlink:href="#a" transform="rotate(180 76 102.7)" width="100%" height="100%"/></g><g id="b" transform="rotate(45 37.3 -134.7)"><path d="M59 105.6H41.6v4.8l-7.6-7.7 7.6-7.7v4.8H59v2.9z" fill="#fff" fill-rule="evenodd" stroke-width=".2"/><use height="100%" width="100%" transform="rotate(180 75 102.7)" xlink:href="#a"/></g><g transform="rotate(45 57.3 -126.4)" id="c"><path d="M65.3 105.6H48v4.8l-7.7-7.7L48 95v4.8h17.3v2.9z" fill="#fff" fill-rule="evenodd" stroke-width=".2"/><use xlink:href="#a" transform="rotate(180 71.8 102.7)" width="100%" height="100%"/></g><use height="100%" width="100%" transform="translate(-23.5 23.5)" xlink:href="#b"/><use height="100%" width="100%" transform="translate(-47 47)" xlink:href="#c"/></g></svg>