<svg xmlns="http://www.w3.org/2000/svg" xmlns:xlink="http://www.w3.org/1999/xlink" width="400" height="400.4" viewBox="0 0 105.8 105.9"><g transform="rotate(45 132.7 30)"><path d="M83.4 109.4h-40v11l-17.7-17.7L43.4 85v11h40v6.7z" id="a" fill="#fff" fill-rule="evenodd" stroke-width=".5"/><use height="100%" width="100%" transform="rotate(-180 92.6 102.7)" xlink:href="#a"/></g><path d="M101.2 24.8l4.3 4.3-3 5.2 2.8 5.3-4.6 4 1 6-5.5 2.4-.8 6-6 .6-2.8 5.5-5.9-1.4-4.2 4.4-5.2-3.1-5.4 2.8-4-4.5-6 1-2.4-5.5-6-.9-.5-6-5.5-2.7 1.3-6-4.3-4.1 3-5.2-2.8-5.4 4.6-4-1-6 5.5-2.4.8-6 6-.6 2.8-5.4 5.9 1.3L67.5 0l5.2 3.1L78.1.3l4 4.5 6-1 2.4 5.6 6 .8.5 6 5.5 2.7z" fill="red" fill-opacity=".7" stroke="#000" stroke-width=".08783400000000001" stroke-linejoin="round"/><g aria-label="x10" style="line-height:100%;-inkscape-font-specification:'Berlin Sans FB Demi'" font-weight="400" font-size="38.8" font-family="Berlin Sans FB Demi" letter-spacing="0" word-spacing="0" fill="#fff" stroke-width=".2"><path d="M63.6 43.4q0 .3-.5.4l-2 .1h-2l-.7-.4L56 40l-2.8 3.4q-.2.3-.6.4l-1.8.1q-2.6 0-2.6-.5v-1.5-1.5q0-.3.3-.6l3.8-4-2.3-2.3q-1.8-1.8-1.8-2.2v-2.9q0-.4.5-.4h4q.4 0 .6.4l2.6 3.1 2.4-3q.2-.4.6-.4h2l2.2-.1q.5 0 .5.4v3l-.2.5-3.8 4q1.3 1.2 3.8 4 .2.2.2.5zM73.2 43q0 .3-.3.5-.2.3-.6.3h-4.8q-.6 0-.6-.5v-.2l.3-7.7v-5q0-.4-.2-.4l-1 .2-1 .2q-.6 0-.6-.6v-1.7-1.7q0-.3.4-.5 2.5-1 3.9-2.7.2-.4.4-.4h.2l2 .5 1.9.3q.2 0 .2.3v.4q-.2 1.4-.2 7.1V43zM95.8 33.8q0 4.3-2.7 7.3-3 3.2-7.2 3.2t-7.1-3.2q-2.8-3-2.8-7.3 0-4.4 2.8-7.4 2.9-3.1 7.1-3.1 4.3 0 7.1 3.1 2.8 3 2.8 7.4zm-6.1 0q0-1.8-1-3-1.1-1.4-2.8-1.4-1.7 0-2.7 1.4-1 1.2-1 3 0 1.7 1 3 1 1.4 2.7 1.4 1.7 0 2.7-1.5 1-1.3 1-3z" style="line-height:100%;-inkscape-font-specification:'Berlin Sans FB Demi'"/></g></svg>