<svg xmlns="http://www.w3.org/2000/svg" xmlns:xlink="http://www.w3.org/1999/xlink" width="400" height="400" viewBox="0 0 105.8 105.8"><g transform="rotate(45 132.8 30)"><path d="M83.4 109.4h-40v11l-17.7-17.7L43.4 85v11h40v6.7z" id="a" fill="#fff" fill-rule="evenodd" stroke-width=".5"/><use height="100%" width="100%" transform="rotate(-180 92.6 102.7)" xlink:href="#a"/></g><path d="M101.5 24.8l4.3 4.2-3 5.2 2.8 5.4-4.6 4 1 6-5.5 2.4-.8 6-6 .6L87 64l-6-1.3-4.2 4.3-5.2-3-5.4 2.8-4-4.6-6 1-2.4-5.5-6-.8-.5-6-5.5-2.7 1.3-6-4.3-4.2 3-5.2-2.8-5.3 4.6-4-1-6L48 15l.9-6 6-.6L57.7 3l5.9 1.4L67.8 0 73 3 78.4.3l4 4.6 6-1 2.4 5.5 6 .9.6 6 5.4 2.7z" fill="#0ff" fill-opacity=".7"/><g aria-label="x100" style="line-height:100%;-inkscape-font-specification:'Berlin Sans FB Demi'" font-weight="400" font-size="28.3" font-family="Berlin Sans FB Demi" letter-spacing="0" word-spacing="0" fill="#d45500" stroke-width=".1"><path d="M58.4 40.7q0 .2-.4.3l-1.5.1L55 41l-.5-.2-1.8-2.6-2 2.5q-.1.2-.4.3l-1.4.1q-1.9 0-1.9-.4v-1.1-1q0-.3.3-.5l2.7-3-1.6-1.6Q47 32 47 31.9v-2.1q0-.4.4-.4H49l1.4.1q.3 0 .5.3l1.9 2.2 1.7-2.2q.2-.3.4-.3H58q.4 0 .4.3v2q0 .3-.2.5l-2.7 2.9 2.7 2.9.2.4zM65.4 40.4l-.2.4q-.2.2-.5.2h-3.5q-.4 0-.4-.4v-.1l.2-5.6v-3.6q0-.4-.2-.4l-.7.2-.7.1q-.4 0-.4-.4v-1.3-1.2q0-.3.3-.4 1.7-.7 2.8-2l.3-.2h.2l1.3.3 1.5.2.1.3v.2l-.1 5.3v8.4zM81.9 33.7q0 3.1-2 5.3-2.1 2.4-5.2 2.4T69.5 39q-2-2.2-2-5.3 0-3.2 2-5.4 2-2.3 5.2-2.3 3 0 5.2 2.3 2 2.2 2 5.4zm-4.5 0q0-1.3-.7-2.2-.8-1-2-1-1.3 0-2 1-.8.9-.8 2.2 0 1.2.7 2.2.8 1 2 1 1.3 0 2-1 .8-1 .8-2.2zM97.6 33.7q0 3.1-2 5.3-2.1 2.4-5.2 2.4-3.2 0-5.2-2.4-2-2.2-2-5.3 0-3.2 2-5.4 2-2.3 5.2-2.3 3 0 5.2 2.3 2 2.2 2 5.4zm-4.5 0q0-1.3-.7-2.2-.8-1-2-1-1.3 0-2 1-.8.9-.8 2.2 0 1.2.7 2.2.8 1 2 1t2-1q.8-1 .8-2.2z" style="line-height:100%;-inkscape-font-specification:'Berlin Sans FB Demi'"/></g></svg>